# xmcd
#
# Track frame offsets:
#	150
#	9630
#	22550
#	33222
#	44567
#	57594
#	65893
#	75787
#	83987
#	93927
#	103569
#	115105
#	122184
#	130224
#	137816
#	147497
#	159261
#	171584
#	183639
#	195878
#	208864
#	221803
#	234785
#	244818
#	255373
#	266443
#	277246
#	287395
#	299674
#	309427
#	322588
#	335860
#	349180
#	360922
#
# Disc length: 4990 seconds
#
# Revision: 0
# Processed by: cddbd v1.5.2PL0 Copyright (c) Steve Scherf et al.
# Submitted via: audiograbber 1.83.01
#
DISCID=f7137c22
DTITLE=Chuck Berry - Rock And Roll Music - Any Old Way You Choose It [CD 04) - 
DTITLE=Studio 1960-1964
DYEAR=2014
DGENRE=Rock and Roll
TTITLE0=I Still Got The Blues [mono 1963]
TTITLE1=I'm Just A Lucky So And So [mono 1988]
TTITLE2=Mad Lad [instrumental] [mono 1960]
TTITLE3=Crying Steel [instrumental] [mono 1963]
TTITLE4=Route 66 [take 10] [mono 1961]
TTITLE5=I'm Talking About You [mono 1961]
TTITLE6=Rip It Up [mono 1961]
TTITLE7=Come On [mono 1961]
TTITLE8=Adulteen [mono 2004]
TTITLE9=The Man And The Donkey [mono 1963]
TTITLE10=Go Go Go [mono 1961]
TTITLE11=Trick Or Treat [mono 1963]
TTITLE12=Brown Eyed Handsome Man [instrumental] [mono 2009]
TTITLE13=Brown Eyed Handsome Man [mono 1963]
TTITLE14=All Aboard [mono 1963]
TTITLE15=Nadine (Is It You?) [1964]
TTITLE16=You Never Can Tell [1964]
TTITLE17=The Little Girl From Central [1964]
TTITLE18=(The) Things I Used To Do [1964]
TTITLE19=I'm In The Danger Zone [2009]
TTITLE20=I'm In The Twilight Zone [2004]
TTITLE21=Fräulein [1964]
TTITLE22=Lonely All The Time (Crazy Arms) [1964]
TTITLE23=O Rangutang [instrumental] [mono 1964]
TTITLE24=Big Ben (Blues) [1964]
TTITLE25=(The) Promised Land [1964]
TTITLE26=Brenda Lee [mono 1964]
TTITLE27=No Particular Place To Go [1964]
TTITLE28=You Two [1964]
TTITLE29=Liverpool Drive [instrumental] [1964]
TTITLE30=Chuck's Beat [instrumental] [1964]
TTITLE31=Bo's Beat [instrumental] [1964]
TTITLE32=Little Marie [1964]
TTITLE33=Go, Bobby Soxer [1964]
EXTD=
EXTT0=
EXTT1=
EXTT2=
EXTT3=
EXTT4=
EXTT5=
EXTT6=
EXTT7=
EXTT8=
EXTT9=
EXTT10=
EXTT11=
EXTT12=
EXTT13=
EXTT14=
EXTT15=
EXTT16=
EXTT17=
EXTT18=
EXTT19=
EXTT20=
EXTT21=
EXTT22=
EXTT23=
EXTT24=
EXTT25=
EXTT26=
EXTT27=
EXTT28=
EXTT29=
EXTT30=
EXTT31=
EXTT32=
EXTT33=
PLAYORDER=
